<svg xmlns="http://www.w3.org/2000/svg" xml:space="preserve" style="fill-rule:evenodd;clip-rule:evenodd;stroke-linejoin:round;stroke-miterlimit:2" viewBox="0 0 6196 3243" preserveAspectRatio="xMidYMin meet">
  <path d="M0 2261.617V3.109c12.991-6.995 14.136 0 184.43 0h6007.564c6.993 12.992 0 14.137 0 184.43v2140.594c-62.385-7.322-675.93 44.281-734.625 49.217-63.891 5.374-532.765 44.809-798.413 69.819-432.404 40.71-432.379 34.764-858.497 30.664-1006.124-9.679-1115.735-43.404-1445.014-67.16-724.11-52.242-723.543-51.483-786.425-56.424-166.335-13.07-1427.059-89.174-1569.02-92.633Zm224.48-628.85c6.071 10.209 4.551 19.453 13.003 11.618 3.404-3.156 3.987-8.647 7.391-11.803-3.168-.863-2.931.651-6.145-.224-7.208-1.963-7.021.201-14.249.409" style="fill:#a1d1fc"/>
  <path d="M0 3242.983v-981.366c141.961 3.458 1402.685 79.563 1569.02 92.633 62.882 4.941 62.315 4.182 786.425 56.424 329.279 23.756 438.891 57.481 1445.014 67.16 426.118 4.099 426.093 10.045 858.497-30.664 265.648-25.01 734.522-64.445 798.413-69.819 58.694-4.937 672.24-56.539 734.625-49.217v372.975h3.108v541.876H0Z" style="fill:#7ebc36"/>
</svg>
