<?xml version="1.0" encoding="UTF-8" standalone="no"?><!DOCTYPE svg PUBLIC "-//W3C//DTD SVG 1.1//EN" "http://www.w3.org/Graphics/SVG/1.1/DTD/svg11.dtd"><svg width="100%" height="100%" viewBox="0 0 240 240" version="1.1" xmlns="http://www.w3.org/2000/svg" xmlns:xlink="http://www.w3.org/1999/xlink" xml:space="preserve" xmlns:serif="http://www.serif.com/" style="fill-rule:evenodd;clip-rule:evenodd;stroke-linejoin:round;stroke-miterlimit:2;"><path d="M126.801,67.703l-0.068,0.021c-0.021,-0.136 -0.068,-0.251 -0.136,-0.393c0.068,0.115 0.157,0.23 0.204,0.372m85.576,42.097c-0.115,-0.209 -0.209,-0.393 -0.325,-0.602c-0.597,-1.33 -1.262,-2.665 -1.979,-4c-0.11,-0.209 -0.204,-0.393 -0.319,-0.597c-0.597,-1.335 -1.267,-2.67 -1.979,-4.005c-0.115,-0.204 -0.204,-0.387 -0.319,-0.597c-0.602,-1.335 -1.267,-2.67 -1.979,-4c-0.115,-0.209 -0.209,-0.393 -0.325,-0.602c-0.597,-1.335 -1.262,-2.665 -1.979,-4c-0.11,-0.209 -0.204,-0.393 -0.319,-0.597c-0.597,-1.335 -1.267,-2.67 -1.979,-4.005c-8.922,-16.587 -24.52,-26.478 -41.704,-26.478c-4.121,0 -8.283,0.576 -12.331,1.728l-19.828,5.587c-0.461,-0.963 -0.969,-1.932 -1.497,-2.848c-0.691,-1.592 -1.471,-3.131 -2.299,-4.602c-0.691,-1.586 -1.471,-3.131 -2.304,-4.602c-6.325,-14.216 -17.572,-23.855 -31.814,-26.981c-4,-0.901 -8.142,-1.335 -12.283,-1.335c-13.132,0 -26.363,4.529 -37.217,12.765c-16.771,12.723 -22.865,33.541 -15.53,53.05l30.159,80.073c0.644,1.749 1.471,3.382 2.414,4.901c0.644,1.634 1.403,3.173 2.304,4.602c0.644,1.634 1.403,3.173 2.299,4.597c0.644,1.634 1.403,3.178 2.299,4.602c0.644,1.634 1.403,3.173 2.304,4.602c3.838,9.912 12.786,16.284 22.886,16.284c2.786,0 5.592,-0.461 8.33,-1.403l88.54,-30.457c13.551,-4.644 24.661,-14.975 29.766,-27.604c5.702,-14.195 4.67,-29.216 -2.99,-43.474" style="fill:#fff;fill-rule:nonzero;"/><path d="M191.132,126.416c-3.388,8.412 -11.401,17.103 -22.829,21.031l-88.535,30.44c-7.534,2.59 -14.224,-1.389 -16.843,-8.345l-30.151,-80.084c-5.541,-14.719 -0.767,-30.366 11.708,-39.824c11.322,-8.584 25.971,-12.483 40.087,-9.378c13.917,3.061 22.673,14.239 26.348,27.597c1.876,6.818 7.578,13.993 14.99,11.902l21.996,-6.207c16.673,-4.704 32.537,3.793 40.795,19.144c5.479,10.183 7.269,21.717 2.434,33.724m-64.329,-58.715l-0.07,0.023c-0.023,-0.138 -0.07,-0.253 -0.138,-0.391c0.069,0.115 0.161,0.23 0.208,0.368m85.573,42.097c-0.115,-0.207 -0.207,-0.391 -0.323,-0.598c-0.597,-1.335 -1.264,-2.669 -1.978,-4.003c-0.114,-0.207 -0.206,-0.391 -0.322,-0.598c-0.597,-1.335 -1.265,-2.669 -1.978,-4.003c-0.115,-0.207 -0.207,-0.391 -0.323,-0.598c-0.597,-1.334 -1.264,-2.669 -1.978,-4.003c-0.115,-0.207 -0.207,-0.391 -0.323,-0.598c-0.597,-1.334 -1.265,-2.668 -1.978,-4.002c-0.115,-0.207 -0.207,-0.392 -0.323,-0.598c-0.597,-1.334 -1.264,-2.668 -1.978,-4.002c-8.925,-16.586 -24.522,-26.478 -41.706,-26.478c-4.118,0 -8.282,0.575 -12.33,1.725l-19.83,5.59c-0.461,-0.966 -0.966,-1.932 -1.496,-2.853c-0.69,-1.587 -1.471,-3.128 -2.3,-4.6c-0.69,-1.588 -1.471,-3.129 -2.3,-4.601c-6.326,-14.217 -17.574,-23.855 -31.814,-26.984c-4.003,-0.897 -8.143,-1.334 -12.285,-1.334c-13.135,0 -26.362,4.531 -37.22,12.767c-16.77,12.721 -22.865,33.539 -15.528,53.047l30.158,80.076c0.643,1.748 1.472,3.382 2.416,4.9c0.644,1.633 1.403,3.175 2.301,4.601c0.643,1.633 1.403,3.175 2.3,4.601c0.643,1.633 1.403,3.175 2.301,4.601c0.643,1.633 1.403,3.175 2.3,4.601c3.842,9.915 12.789,16.286 22.888,16.286c2.783,0 5.59,-0.46 8.328,-1.403l88.541,-30.457c13.55,-4.647 24.66,-14.975 29.768,-27.604c5.703,-14.194 4.669,-29.215 -2.991,-43.477" style="fill:#ffb7ef;fill-rule:nonzero;"/></svg>