<svg xmlns="http://www.w3.org/2000/svg" xml:space="preserve" style="fill-rule:evenodd;clip-rule:evenodd;stroke-linejoin:round;stroke-miterlimit:2" viewBox="0 0 305 893">
  <path d="M151.675 5.631c4.695 2.372 13.043 5.478 24.361 19.158 7.873 9.516 6.857 10.113 9.744 22.033 1.244 5.136 10.239 8.896 6.422 11.768-2.503 1.883 4.603 7.102-.813 6.049-4.338-.843-.41 10.795-2.978 11.923-4.105 1.802-3.031 2.877-5.311 8.786l-.708 1.019c-3.921 4.966-2.943 6.053 1.674 10.343 2.841 2.64-.214 2.581-.531 2.419-4.25-2.164-4.764-3.729-5.894-1.751-1.765 3.089 10.635 10.808 1.932 8.445-2.136-.58-2.052-.628-3.998-1.583-4.409-2.164-2.168 7.034-2.782 8.049-.44.727-2.286 3.776 2.274 10.37.244.353 11.399 10.866 12.698 11.848 6.406 4.848 42.125 10.47 62.712 20.568 8.487 5.277 13.908 6.535 16.195 24.321.682 5.301 8.617 24.47 10.951 47.449.178 1.751 2.537 7.742 4.205 35.577.761 12.702 8.94 95.215 10.572 104.825.73 9.417 3.092 29.196.555 53.382-.668 6.371 15.673 63.539 10.982 65.975-.506.263-.5.038-6.843 1.974-2.374.724-6.197-3.555-6.94.295-1.921 9.956-2.793 10.555-4.631 12.343-.562.069-4.162.512-7.018.95l-1.052.056-4.051.12c-3.701.129-4.245.7-3.953 4.354 2.662 33.363 4.36 39.447 3.023 66.244.328 11.087.18 10.988-.471 16.754l-.443 4.011c.205 62.968-3.833 72.881-1.722 84.986.052.301-.015 5.267 1.575 13.899.151.817-.642 8.177-.718 8.886.024 2.307.192 18.104-3.225 28.66-1.397 4.315-7.374 7.867-11.858 8.566-1.295.202-2.633-.024-3.929.178l-2.935.405c-7.418.245-7.391.901-15.853-.117-5.935-.718-5.709-1.524-11.542-2.445-5.387-2.352-8.318-4.419-8.987-4.891-4.031-2.842-4.51-3.027-7.488-.887-2.958 3.579-1.612 5.574-3.107 10.904-.162.579-.345.499-2.674 7.022-.497 1.391.02 1.515-5.195 17.714-2.024 6.286-1.235 6.401-2.868 12.94-.532 2.13-.566 12.792-.569 13.905-.017 5.307 7.386 2.103 8.311 13.804.522 6.607 11.972 14.907 18.844 29.964.505 1.275 2.788 7.037 4.566 16.528.678 3.618.821 13.665.838 14.855.109 7.624-5.874 11.576-6.055 11.747-8.709 7.815-23.288 7.764-30.431 6.572-6.825-2.444-6.569-2.791-12.624-6.866-.979-.958-5.887-5.76-9.292-14.389-1.919-4.864 2.741-9.479-3.422-16.142-.934-1.009-4.015-9.809-3.844-3.884.204 7.074.597 6.971 1.712 13.995.729 4.594-.293 4.74 1.367 9.081 1.07 2.798-.825 9.824-1.048 10.651-2.503 5.018-3.747 10.033-21.422 12.652-.305.045-.285-.013-3.846-.175-1.989-.181-13.677-1.244-23.872-7.329-1.094-.653-6.479-7.44-6.981-10.95-1.643-11.474 1.618-23.721 2.149-25.716.082-.308.019-3.188.989-7.917 6.834-24.61 10.344-29.511 10.266-33.615-.085-4.431-1.841-5.972 3.717-11.716 5.867-6.063.62-7.942 4.948-21.825.308-.989-.332-1.028.337-12.941.031-.557-.967-.39-.852-6.926.059-3.372-3.949-5.231-3.828-8.878.249-7.451-1.251-7.373-.58-14.837.135-1.501-1.126-1.412-1.527-18.771-.129-5.576-2.01-5.312-1.724-10.906.203-3.971-.668-3.879-.615-7.901.005-.402.01-.761-.928-4.945-.63-12.537-3.666-25.537-4.176-27.721-1.735-15.296.334-15.251.807-30.621.351-11.414 3.268-21.604 1.057-33.624-.074-.404-4.528-68.291-5.107-73.15-.314-2.633.278-18.97-.48-34.657 1.43-3.238.913-3.267 1.09-6.728.173-9.522.001-9.482.972-18.923.119-13.425-1.698-13.245-1.713-26.715-.017-15.931.365-15.901-1.892-31.612-.155-1.082.427-17.464.626-18.743.242-1.566 1.891-12.214.324-19.799-1.028-4.972-12.851-5.262-19.107-15.123-.959-1.937-8.725-16.466-11.372-33.367-.403-4.952 1.079-5.044-.371-9.78-6.212-20.294-8.296-19.214-9.33-20.109l-2.912-2.038c-7.928-6.236-6.62-12.129-16.822-27.517-6.685-11.537-11.247-20.881-11.521-21.36-5.67-9.891-7.39-15.293-10.108-20.236-2.438-6.306 1.213-5.466 7.493-8.01 5.102-2.066.503-4.686 3.106-9.592 1.98-3.732-5.597-5.791-10.715-8.251C2.764 175.247-2.262 176.538.824 171.649c3.173-5.027 13.606.414 21.689 4.358 17.17 8.379 19.949 12.85 20.442 7.343.49-5.474-23.628-26.58-21.147-32.454.909-2.151 5.473-6.858 23.764 16.955 11.038 13.369 12.447 11.764 25.784 22.878 3.637 3.031 8.263-3.288 11.818.982 3.287 3.949 3.303-1.336 31.658-24.6 8.806-7.225 6.08-8.958 7.611-20.287.08-.595 2.312-5.434 1.809-7-3.844-11.958-4.135-11.893-12.307-21.417-.62-.723-2.432-1.364-2.583-2.297-.473-2.917-.296-7.266-5.957-7.409-2.342-.059-8.443-4.708-9.324-9.286-1.852-9.627-2.844-10.599-7.486-9.862-2.529.401-2.02-.751-3.05-3.068-.916-3.607.383-3.654-.222-6.899-1.334-7.155-1.446-7.298-2.77-7.787-2.727-1.007 1.376-3.984 1.243-5.118-.587-4.988-.283-4.943.956-9.845 4.447-17.597 3.039-18.164 8.054-25.556.326-.481 8.988-16.618 23.446-21.961 2.361-.872 5.027.316 7.944-1.928 11.746-9.041 13.513-9.975 29.478-1.759Z" style="fill:#fefefe"/>
</svg>
